<svg id="Capa_1" data-name="Capa 1" xmlns="http://www.w3.org/2000/svg" viewBox="0 0 522.47 392.02"><title>code-1</title><path d="M325.76,70.51l-17.7-4.85a8,8,0,0,0-6.71.71,9.31,9.31,0,0,0-4.43,5.57L190.43,440.53a8.55,8.55,0,0,0,.71,7,9.27,9.27,0,0,0,5.57,4.42l17.7,4.86a8,8,0,0,0,6.71-.72,9.24,9.24,0,0,0,4.42-5.56L332,81.94a8.55,8.55,0,0,0-.71-7A9.28,9.28,0,0,0,325.76,70.51Z" transform="translate(0 -65.23)" fill="#48ade2"/><path d="M166.17,142.47a9,9,0,0,0-2.86-6.57L149,121.62a9,9,0,0,0-13.13,0l-133,133a9,9,0,0,0,0,13.13l133,133a9,9,0,0,0,13.13,0l14.28-14.26a9,9,0,0,0,0-13.14L51.11,261.23,163.31,149A9,9,0,0,0,166.17,142.47Z" transform="translate(0 -65.23)" fill="#48ade2"/><path d="M519.61,254.66l-133-133a9,9,0,0,0-13.14,0l-14.27,14.27a9,9,0,0,0,0,13.14l112.21,112.2L359.16,373.44a9,9,0,0,0,0,13.13l14.27,14.27a9,9,0,0,0,13.14,0l133-133a9,9,0,0,0,0-13.14Z" transform="translate(0 -65.23)" fill="#48ade2"/></svg>