<svg id="Capa_1" data-name="Capa 1" xmlns="http://www.w3.org/2000/svg" viewBox="0 0 412.72 296.11"><title>book-1</title><path d="M8,90.94H43.12V299.58a358.22,358.22,0,0,1,51.52-4,217.18,217.18,0,0,1,71,10.72L185,321.82c-11.44-1.28-45.92-1.92-57.2-1.92A277.69,277.69,0,0,0,19.2,341L8,345.82Z" transform="translate(0 -58.3)" fill="#ed7d32"/><path d="M393.44,341A277.69,277.69,0,0,0,284.8,319.9c-11.36,0-43.84,1.28-55.2,2.56l17.44-16a217.29,217.29,0,0,1,71.28-10.88,358.22,358.22,0,0,1,51.52,4V90.94H405v255Z" transform="translate(0 -58.3)" fill="#f69d3c"/><path d="M193.92,319.82c-16.88-11-48-24-99.36-24a346.84,346.84,0,0,0-42.48,2.8l-9,1.12V73.58l6.24-1.44a230,230,0,0,1,49.2-5.44c31.36,0,75.12,7.28,105.76,41.84l2,2V328Z" transform="translate(0 -58.3)" fill="#fff"/><path d="M206.32,110.54l2-2.24C239,73.66,282.8,66.46,314.08,66.46a230,230,0,0,1,49.2,5.44l6.24,1.44V299.5l-9-1.12a344.92,344.92,0,0,0-42.24-2.8c-51.6,0-82.48,13.2-99.36,24l-12.4,8Z" transform="translate(0 -58.3)" fill="#fff"/><path d="M404.64,82.94H377.52V73.66a8,8,0,0,0-5.76-8,225.91,225.91,0,0,0-57.68-7.36c-32,0-75.6,7.2-107.84,40-32-33.12-75.92-40-107.84-40a225.91,225.91,0,0,0-57.68,7.36,8,8,0,0,0-5.76,8v9.2H8a8,8,0,0,0-8,8V346.38a8,8,0,0,0,11.92,7c.8-.4,80.8-44.16,192.48-16h1.92a7.71,7.71,0,0,0,1.92,0c112-28.4,192,15.28,192.48,16a8,8,0,0,0,12-6.88V90.94a8,8,0,0,0-8-8ZM16,333.66V98.94H35.12V299.58A8,8,0,0,0,43,307.67a7,7,0,0,0,1.29-.09,351.71,351.71,0,0,1,50-4,207.69,207.69,0,0,1,68.32,10.32A294.27,294.27,0,0,0,16,333.66Zm182.32-20.48c-16.64-10.88-49.12-25.52-104-25.52a353.83,353.83,0,0,0-43.52,2.8V80A220.72,220.72,0,0,1,98.24,74.7c29.92,0,71.2,6.88,99.84,39.2Zm16-199.28c28.64-32,69.92-39.2,99.84-39.2A222,222,0,0,1,361.6,80V290.46a353.84,353.84,0,0,0-43.28-2.88c-54.56,0-87.12,14.64-104,25.52ZM396.64,333.66a294.26,294.26,0,0,0-147-19.76,208.22,208.22,0,0,1,68.64-10.32,351.71,351.71,0,0,1,50.32,3.92,8,8,0,0,0,9.11-6.71,6.88,6.88,0,0,0,.09-1.29V98.94H397Z" transform="translate(0 -58.3)" fill="#1d1d1b"/></svg>