<svg id="Layer_1" data-name="Layer 1" xmlns="http://www.w3.org/2000/svg" viewBox="0 0 512 512"><title>direction</title><path d="M412.87,256a146.77,146.77,0,1,1-81.26-131.44q3.92,2,7.69,4.14A146.92,146.92,0,0,1,412.87,256Z" transform="translate(-10 0)" fill="#fff" stroke="#000" stroke-miterlimit="10" stroke-width="21"/><polyline points="239.05 403.9 239.05 455.54 222.88 455.54 257.24 502 291.61 455.54 275.43 455.54 275.43 403.6" fill="#fff"/><polyline points="403.75 274.19 455.54 274.19 455.54 290.36 502 256 455.54 221.64 455.54 237.81 403.76 237.81" fill="#fff"/><polyline points="108.25 237.81 56.46 237.81 56.46 221.64 10 256 56.46 290.36 56.46 274.19 108.25 274.19" fill="#fff"/><polyline points="275.43 108.4 275.43 56.46 291.61 56.46 257.24 10 222.88 56.46 239.05 56.46 239.05 108.1" fill="#fff"/><path d="M362.51,256A96.51,96.51,0,1,1,266,159.49,96.44,96.44,0,0,1,362.51,256Z" transform="translate(-10 0)" fill="#48ade2" stroke="#000" stroke-miterlimit="10" stroke-width="21"/><circle cx="256" cy="234.86" r="40.11" fill="#fff"/><path d="M315.43,290.71V338.9a96.57,96.57,0,0,1-98.86,0V290.71A15.74,15.74,0,0,1,232.3,275h67.39A15.74,15.74,0,0,1,315.43,290.71Z" transform="translate(-10 0)" fill="#fff"/><path d="M518,248,471.48,213.6a10,10,0,0,0-15.94,8v6.17H420.31A156.25,156.25,0,0,0,405.38,184a10,10,0,0,0-17.76,9.19A135.36,135.36,0,0,1,402.87,256c0,75.47-61.4,136.87-136.87,136.87a135.77,135.77,0,0,1-55.12-11.55,10,10,0,0,0-8.06,18.31,155.85,155.85,0,0,0,36.23,10.95v35h-6.17a10,10,0,0,0-8,15.94L259.2,508a10,10,0,0,0,16.08,0l34.37-46.47a10,10,0,0,0-8-15.94h-6.18V410.1a157.29,157.29,0,0,0,124.9-125.91h35.21v6.17a10,10,0,0,0,15.94,8L518,264A10,10,0,0,0,518,248ZM282.17,465l-14.93,20.19L252.31,465a10,10,0,0,0,6.74-9.45V412.72c2.31.1,4.62.15,6.95.15,3.17,0,6.31-.1,9.43-.28v43A10,10,0,0,0,282.17,465ZM475,270.93a10,10,0,0,0-9.45-6.74H422.66q.21-4.06.21-8.19t-.22-8.19h42.89a10,10,0,0,0,9.45-6.74L495.18,256Z" transform="translate(-10 0)"/><path d="M129.13,256c0-75.47,61.4-136.87,136.87-136.87a135.8,135.8,0,0,1,56.46,12.15,10,10,0,1,0,8.26-18.22,155.61,155.61,0,0,0-35.29-11.19V66.46h6.17a10,10,0,0,0,8-15.94L275.28,4.05a10,10,0,0,0-16.08,0L224.84,50.52a10,10,0,0,0,8,15.94h6.17v35A157.28,157.28,0,0,0,111.67,227.81H76.46v-6.17a10,10,0,0,0-15.94-8L14.05,248a10,10,0,0,0,0,16.08L60.52,298.4a10,10,0,0,0,15.94-8v-6.17h35.16A155.11,155.11,0,0,0,143,353.36a10,10,0,0,0,15.67-12.43A135.42,135.42,0,0,1,129.13,256ZM252.31,47l14.93-20.19L282.17,47a10,10,0,0,0-6.74,9.45V99.41q-4.69-.28-9.43-.28-3.5,0-6.95.15V56.46A10,10,0,0,0,252.31,47ZM66.46,264.19A10,10,0,0,0,57,270.93L36.82,256,57,241.07a10,10,0,0,0,9.45,6.74h42.88q-.21,4.06-.21,8.19t.21,8.19Z" transform="translate(-10 0)"/><path d="M211.44,347.49a106.6,106.6,0,0,0,109.12,0,10,10,0,0,0,4.87-8.59V290.71a25.79,25.79,0,0,0-19.91-25.08,50.11,50.11,0,1,0-79,0,25.8,25.8,0,0,0-19.91,25.08v28.12a86.46,86.46,0,1,1,140.55-32.69,10,10,0,0,0,18.75,7A106.53,106.53,0,1,0,211.4,347.46Zm94-14.47a86.66,86.66,0,0,1-78.86,0V290.71A5.74,5.74,0,0,1,232.3,285h67.4a5.74,5.74,0,0,1,5.73,5.74V333ZM266,204.75a30.11,30.11,0,0,1,.31,60.22h-.62a30.11,30.11,0,0,1,.31-60.22Z" transform="translate(-10 0)"/></svg>