<svg id="Layer_1" data-name="Layer 1" xmlns="http://www.w3.org/2000/svg" viewBox="0 0 480 427.25"><title>eye-1</title><path d="M480,337.63h0c-31.2-56-126.4-151.2-240-151.2-132.8,0-189.6,55.2-240,151.2H0c31.2,64,126.4,116,240,116s208.8-52,240-116Z" transform="translate(0 -26.37)" fill="#1d1d1b"/><path d="M480,337.63h0c-31.2-56-126.4-130.4-240-130.4-132.8,0-190.4,34.4-240,130.4H0C31.2,393.63,126.4,452,240,452s208.8-58.4,240-114.4Z" transform="translate(0 -26.37)" fill="#1d1d1b"/><path d="M480,337.63h0c-31.2-40-126.4-104-240-104-132.8,0-189.6,32-240,104H0c31.2,40,126.4,94.4,240,94.4s208.8-54.4,240-94.4Z" transform="translate(0 -26.37)" fill="#fff"/><path d="M336.8,332a96.8,96.8,0,1,1-96.8-96.8A96.62,96.62,0,0,1,336.8,332Z" transform="translate(0 -26.37)" fill="#00a850"/><path d="M282.4,332a42.4,42.4,0,1,1-42.4-42.4A42.17,42.17,0,0,1,282.4,332Z" transform="translate(0 -26.37)" fill="#1d1d1b"/><path d="M270.4,301.63a42.43,42.43,0,0,1-60,60" transform="translate(0 -26.37)" fill="#050707"/><path d="M235.2,300.83a21.6,21.6,0,1,1-21.6-21.6A21.51,21.51,0,0,1,235.2,300.83Z" transform="translate(0 -26.37)" fill="#fff"/><path d="M280,360a9.6,9.6,0,1,1-9.6-9.6A9.24,9.24,0,0,1,280,360Z" transform="translate(0 -26.37)" fill="#fff"/><polygon points="169.6 181.65 114.4 129.65 142.4 200.05 169.6 181.65" fill="#1d1d1b"/><polygon points="117.6 192.85 52.8 153.65 94.4 216.05 117.6 192.85" fill="#1d1d1b"/><polygon points="67.2 218.45 10.4 205.65 56.8 241.65 67.2 218.45" fill="#1d1d1b"/><path d="M243.2,64.83c100.8,12.8,184,60,227.2,121.6-16-77.6-101.6-144-211.2-157.6C168,17.63,83.2,45.63,37.6,96,93.6,68,165.6,55.23,243.2,64.83Z" transform="translate(0 -26.37)" fill="#1d1d1b"/></svg>