<svg id="Capa_1" enable-background="new 0 0 512 512" height="512" viewBox="0 0 512 512" width="512" xmlns="http://www.w3.org/2000/svg"><path d="m62.885 419.329c-11.466 32.152-25.066 81.365-5.186 91.178 18.682 9.222 47.005-26.188 65.746-54.27-25.913-9.638-45.683-22.314-60.56-36.908z" fill="#7b7179"/><path d="m388.555 456.238c18.74 28.082 47.064 63.492 65.746 54.27 19.881-9.814 6.28-59.027-5.186-91.178-14.877 14.593-34.647 27.269-60.56 36.908z" fill="#7b7179"/><ellipse cx="111.4" cy="87.924" fill="#00e0a7" rx="24.424" ry="24.424" transform="matrix(.707 -.707 .707 .707 -29.543 104.524)"/><path d="m111.4 93.767c-10.199 0-18.934-6.253-22.59-15.134-1.179 2.864-1.834 6-1.834 9.29 0 13.489 10.935 24.424 24.424 24.424s24.424-10.935 24.424-24.424c0-3.29-.654-6.426-1.834-9.29-3.656 8.881-12.391 15.134-22.59 15.134z" fill="#00c988"/><circle cx="317.962" cy="93.186" fill="#00e0a7" r="24.424"/><path d="m317.962 99.03c-10.199 0-18.934-6.254-22.59-15.134-1.179 2.865-1.834 6-1.834 9.29 0 13.489 10.935 24.424 24.424 24.424s24.424-10.935 24.424-24.424c0-3.29-.655-6.426-1.834-9.29-3.656 8.88-12.391 15.134-22.59 15.134z" fill="#00c988"/><ellipse cx="395.012" cy="34.381" fill="#00e0a7" rx="24.424" ry="24.424" transform="matrix(.987 -.16 .16 .987 -.407 63.718)"/><path d="m395.012 40.224c-10.199 0-18.934-6.254-22.59-15.134-1.18 2.864-1.834 6-1.834 9.29 0 13.489 10.935 24.424 24.424 24.424s24.424-10.935 24.424-24.424c0-3.29-.655-6.426-1.834-9.29-3.656 8.881-12.391 15.134-22.59 15.134z" fill="#00c988"/><circle cx="224.773" cy="34.381" fill="#00e0a7" r="34.381"/><path d="m224.773 50.181c-15.767 0-29.046-10.618-33.1-25.091-.828 2.956-1.281 6.07-1.281 9.29 0 18.988 15.393 34.381 34.381 34.381s34.381-15.393 34.381-34.381c0-3.221-.453-6.334-1.281-9.29-4.054 14.473-17.333 25.091-33.1 25.091z" fill="#00c988"/><path d="m468.04 191.327h-424.08c-14.004 0-25.356-11.352-25.356-25.356 0-14.004 11.352-25.356 25.356-25.356h424.08c14.004 0 25.356 11.352 25.356 25.356 0 14.003-11.352 25.356-25.356 25.356z" fill="#e6e2e6"/><path d="m468.04 172.746h-424.08c-10.723 0-19.884-6.66-23.591-16.065-1.134 2.878-1.764 6.01-1.764 9.29 0 14.004 11.352 25.355 25.356 25.355h424.079c14.004 0 25.355-11.352 25.355-25.355 0-3.281-.63-6.413-1.764-9.29-3.707 9.405-12.868 16.065-23.591 16.065z" fill="#d8d1d7"/><path d="m460.206 191.326s144.381 284.633-204.206 284.633-204.206-284.633-204.206-284.633z" fill="#8c808a"/><path d="m449.115 419.329c-14.877 14.594-34.647 27.269-60.56 36.908 3.407 5.106 7.132 10.453 11.058 15.731 22.884-8.445 41.494-19.054 56.511-31.204-2.223-7.535-4.659-14.845-7.009-21.435z" fill="#686167"/><path d="m55.877 440.765c15.016 12.15 33.627 22.759 56.511 31.204 3.925-5.278 7.65-10.625 11.058-15.731-25.913-9.639-45.683-22.314-60.56-36.908-2.351 6.589-4.786 13.899-7.009 21.435z" fill="#686167"/><path d="m256 457.379c-183.144 0-230.207-78.568-233.631-153.147-3.5 79.467 35.169 171.728 233.631 171.728s237.131-92.26 233.631-171.728c-3.424 74.579-50.487 153.147-233.631 153.147z" fill="#7b7179"/><path d="m468.312 209.907c-4.6-11.668-8.106-18.581-8.106-18.581h-408.412s-3.506 6.913-8.106 18.581z" fill="#7b7179"/><path d="m217.312 140.615h-46.933-46.933v155.951c0 12.96 10.506 23.466 23.466 23.466 12.96 0 23.467-10.506 23.467-23.466v-55.254c0-12.96 10.506-23.467 23.466-23.467 12.959 0 23.465 10.505 23.467 23.464v13.462c0 12.96 10.506 23.467 23.466 23.467 12.96 0 23.466-10.506 23.466-23.467v-114.156z" fill="#00e0a7"/><g fill="#00c988"><path d="m146.912 301.452c-12.96 0-23.467-10.506-23.467-23.466v18.581c0 12.96 10.506 23.466 23.466 23.466 12.96 0 23.467-10.506 23.467-23.466v-18.581c0 12.959-10.506 23.466-23.466 23.466z"/><path d="m240.778 259.657c-12.96 0-23.466-10.507-23.466-23.467v-13.462c-.002-12.959-10.507-23.464-23.467-23.464s-23.466 10.507-23.466 23.467v18.581c0-12.96 10.506-23.467 23.466-23.467s23.465 10.505 23.467 23.464v13.462c0 12.96 10.506 23.467 23.466 23.467s23.466-10.507 23.466-23.467v-18.581c0 12.96-10.506 23.467-23.466 23.467z"/></g></svg>